<?xml version="1.0" standalone="no"?>
<!DOCTYPE svg PUBLIC "-//W3C//DTD SVG 20010904//EN"
 "http://www.w3.org/TR/2001/REC-SVG-20010904/DTD/svg10.dtd">
<svg version="1.0" xmlns="http://www.w3.org/2000/svg"
 width="16.000000pt" height="16.000000pt" viewBox="0 0 16.000000 16.000000"
 preserveAspectRatio="xMidYMid meet">
<metadata>
Created by potrace 1.11, written by Peter Selinger 2001-2013
</metadata>
<g transform="translate(0.000000,16.000000) scale(0.003292,-0.003292)"
fill="#000000" stroke="none">
<path d="M2299 4856 c-2 -2 -24 -6 -49 -9 -239 -30 -501 -143 -681 -293 -261
-217 -421 -480 -491 -806 -29 -140 -31 -400 -4 -533 45 -215 155 -458 271
-595 65 -77 243 -247 295 -281 100 -66 220 -129 313 -164 26 -10 50 -21 52
-25 6 -10 22 -150 31 -268 l5 -74 -138 -139 c-76 -76 -140 -139 -143 -139 -3
0 -6 71 -7 158 -3 257 -8 276 -75 339 -61 55 -81 65 -148 68 -138 8 -236 -73
-250 -205 -9 -83 -5 -1662 5 -1715 10 -59 35 -96 88 -132 146 -98 352 -15 372
150 3 29 7 133 9 232 l2 180 119 200 c294 497 277 471 288 444 5 -13 28 -77
52 -142 48 -132 82 -188 136 -224 54 -35 96 -39 149 -11 77 40 119 113 180
315 13 40 25 73 29 73 6 0 46 -64 286 -458 l119 -197 3 -135 c4 -239 11 -320
29 -348 50 -79 110 -114 203 -118 103 -4 158 26 220 120 l26 40 0 885 c0 969
4 904 -57 973 -97 111 -308 92 -382 -34 -31 -53 -35 -82 -37 -283 -1 -88 -4
-163 -6 -167 -2 -4 -69 57 -148 137 -97 97 -143 150 -141 162 2 10 7 52 11 93
3 41 12 107 18 145 14 79 -8 62 197 161 85 41 210 117 243 147 7 7 42 38 80
70 181 157 340 424 402 675 34 136 35 150 40 307 9 297 -65 559 -230 815 -55
86 -227 265 -326 339 -138 105 -398 219 -559 246 -19 4 -48 9 -65 12 -34 6
-331 14 -336 9z m340 -176 c449 -82 802 -380 950 -802 125 -358 70 -780 -144
-1092 -196 -286 -508 -479 -847 -523 -72 -9 -250 -10 -321 -1 -398 51 -756
307 -939 673 -27 52 -84 212 -91 255 -3 14 -11 54 -17 90 -19 96 -16 308 4
414 92 479 444 854 907 966 46 11 109 23 139 26 30 4 56 8 58 9 8 7 246 -5
301 -15z m-204 -2585 c88 0 182 3 208 7 l48 7 -6 -67 c-4 -37 -8 -74 -10 -82
-3 -8 -7 -33 -10 -55 -5 -34 -21 -127 -39 -225 -2 -14 -9 -45 -15 -70 -5 -25
-12 -58 -15 -75 -35 -190 -127 -492 -156 -510 -14 -9 -44 46 -75 139 -27 82
-99 356 -108 411 -3 17 -14 75 -25 130 -11 55 -23 125 -27 155 -4 30 -8 57
-10 60 -2 3 -6 47 -10 98 l-7 94 49 -9 c26 -4 120 -8 208 -8z m-866 -180 c22
-21 26 -164 25 -799 -1 -314 -2 -586 -3 -603 l-1 -33 -81 0 -80 0 3 703 c2
386 7 709 11 718 18 37 94 45 126 14z m1819 14 c37 -13 43 -29 48 -118 3 -72
6 -637 5 -1064 l-1 -268 -82 3 -82 3 1 570 c1 861 1 848 42 870 32 17 31 17
69 4z m-424 -487 l154 -152 -2 -170 c0 -92 -4 -171 -7 -175 -4 -3 -41 52 -84
122 -43 70 -120 198 -172 283 l-95 155 13 52 c9 39 15 50 26 45 7 -4 82 -76
167 -160z m-879 148 c3 -6 7 -29 8 -53 1 -37 -13 -66 -115 -237 -179 -302
-218 -364 -219 -349 -1 8 -3 86 -4 174 l-3 160 157 158 c85 86 159 157 163
157 4 0 10 -5 13 -10z"/>
<path d="M2302 3856 c-201 -67 -314 -292 -252 -497 56 -186 226 -302 419 -286
150 12 268 95 334 234 29 62 32 77 32 163 0 135 -26 198 -116 289 -60 60 -79
72 -143 94 -94 32 -187 33 -274 3z m231 -160 c89 -37 138 -112 139 -214 2
-148 -89 -244 -232 -245 -146 -2 -243 94 -243 239 1 69 32 143 80 184 60 53
177 69 256 36z"/>
</g>
</svg>
